<?xml version="1.0" encoding="UTF-8" standalone="no"?><svg xmlns="http://www.w3.org/2000/svg" xmlns:xlink="http://www.w3.org/1999/xlink" contentStyleType="text/css" height="460px" preserveAspectRatio="none" style="width:516px;height:460px;background:#FFFFFF;" version="1.1" viewBox="0 0 516 460" width="516px" zoomAndPan="magnify"><defs/><g><!--MD5=[20ea86ce0a0a17cfb3171cbb94efe6bf]
cluster GitHub\n--><g id="cluster_GitHub\n"><path d="M30.0271,24.1602 C36.2282,14.7786 44.4735,15.3279 50.5156,24.3374 C56.8094,12.9272 63.8652,15.0404 70.9195,23.5588 C76.8572,16.7089 82.5908,14.7858 88.0554,24.0615 C93.7228,12.3597 101.3774,9.6272 110.5788,20.5419 C115.3853,12.4646 124.2682,12.0262 129.2423,20.3513 C133.8657,11.3513 141.1512,12.1857 145.7562,20.369 C152.3065,9.2194 162.0078,10.8294 167.2411,21.6565 C172.1517,11.4473 181.886,12.5791 187.8088,20.5089 C193.0798,11.8551 202.2308,12.0447 207.0215,21.032 C213.2878,11.8544 221.3379,13.4423 225.5427,23.0631 C230.7519,12.9451 238.8129,13.1698 245.5985,21.3337 C250.4022,13.3261 258.647,13.6925 263.0034,21.8163 C267.9179,12.9515 275.8126,12.9327 281.6228,20.8208 C293.4147,9.1415 302.9967,13.1546 307.4731,27.9608 C307.6277,28.0436 307.6509,28.1872 307.5063,28.2994 C320.4544,31.7248 319.8494,40.9547 312.712,49.3475 C322.3589,53.1329 323.692,59.8422 317.1383,67.5641 C329.1461,73.4327 328.6283,80.3728 319.2041,88.3694 C326.2357,95.6839 323.2029,102.846 314.5971,106.0965 C324.7058,114.4896 323.5113,123.575 310.8856,128.1404 C318.8904,141.087 315.7737,149.2016 300.4731,151.9608 C302.3002,152.6008 302.3126,153.6437 301.3701,155.0802 C293.6575,164.4887 287.9954,162.0515 282.5969,152.7574 C277.9505,160.8001 270.5018,161.8995 264.1329,154.8671 C257.4701,163.5777 251.0983,165.6069 244.0373,155.2876 C238.4321,163.3768 232.2678,163.6077 226.5863,155.3693 C220.5013,166.9216 213.5262,166.3107 206.1151,156.6489 C198.7787,165.3814 192.4656,163.0757 187.1622,154.4315 C182.7752,163.5984 173.2654,164.9722 168.0454,155.2757 C161.8878,164.6116 153.4404,164.0738 147.8121,154.7032 C141.3094,163.5607 134.019,163.8806 128.8445,153.4004 C124.1051,164.0679 116.1044,163.9605 109.2043,155.6348 C102.0637,163.801 95.8535,162.2059 90.1772,153.9393 C83.2692,162.0392 75.6025,162.6252 69.3795,153.1296 C63.3505,162.3383 57.5352,162.077 50.3897,154.3841 C39.03,164.9558 24.7095,161.4167 22.4731,144.9608 C24.2438,145.0986 24.8766,146.0255 23.949,147.6463 C15.2639,143.1764 13.6305,135.4193 21.9469,129.1128 C9.4656,125.9684 9.4125,115.0271 17.6959,107.7506 C6.9601,103.8033 6,94.041 15.3233,87.718 C6.5329,80.4194 8.3957,72.857 17.7969,67.8199 C11.3717,61.3816 12.3936,55.6494 20.118,51.1855 C7.4901,38.064 12.0162,24.7705 29.4731,20.9608 C31.2625,21.5528 31.4283,23.0157 30.0271,24.1602 " fill="none" style="stroke:#181818;stroke-width:1.0;"/><text fill="#000000" font-family="sans-serif" font-size="14" font-weight="bold" lengthAdjust="spacing" textLength="50" x="139.9731" y="39.496">GitHub</text><text fill="#000000" font-family="sans-serif" font-size="14" font-weight="bold" lengthAdjust="spacing" textLength="5" x="162.4731" y="55.9843"> </text></g><!--MD5=[2ef634178f07d7ca44affbde5181652f]
cluster Docker Hub\n--><g id="cluster_Docker Hub\n"><path d="M183.4799,203.8472 C185.9457,197.9973 191.2413,198.3326 194.0424,203.5265 C197.0348,197.8686 202.7879,196.6053 206.7591,202.4438 C209.3748,197.9382 213.218,198.2829 216.0522,202.2027 C220.0041,196.6327 223.814,197.476 227.5681,202.4195 C230.9041,196.1447 235.0117,195.9505 239.1126,201.6841 C241.2053,195.1608 246.2031,194.4998 250.2973,199.7888 C254.6433,194.4709 260.0605,195.7037 261.8211,202.2913 C264.9572,196.6836 269.0513,196.214 273.428,200.8912 C278.1293,196.1567 282.3171,197.7248 284.9329,203.2335 C288.1043,199.1 291.8783,198.3659 294.6736,203.6236 C297.5401,198.9623 302.452,198.92 305.4452,203.4756 C313.8545,195.932 321.6942,199.0726 323.4731,209.9608 C324.6461,209.3997 325.3277,210.0472 325.29,211.2255 C329.8826,214.3019 331.4621,219.7388 325.1992,222.7294 C330.9205,227.0086 330.6515,232.0736 324.5865,235.8003 C330.9943,238.9627 331.2897,243.759 326.3074,248.4687 C331.9195,252.7552 331.5379,256.5832 325.6955,260.276 C332.4809,263.7463 332.7391,269.0622 326.9059,273.6727 C334.3488,278.1063 333.8277,282.5058 327.0993,287.1428 C331.8269,290.9293 331.5535,294.7173 326.5348,297.9968 C332.3221,302.0191 333.3525,307.4339 326.0946,311.015 C330.5827,315.1064 330.7695,319.6986 324.674,322.4784 C331.8637,331.9748 327.8781,340.2918 316.4731,341.9608 C317.6574,342.4252 317.6501,343.2061 316.9341,344.0833 C313.6363,349.8371 308.7531,350.0641 305.3144,344.2245 C302.0783,350.0574 298.8295,349.2388 294.9786,344.846 C291.9492,349.9456 287.4065,349.3023 284.5306,344.681 C282.0323,351.1155 277.133,353.193 272.0138,347.3537 C268.553,351.86 264.1614,351.2878 261.3295,346.6212 C259.0406,352.3817 254.8581,351.8568 251.266,347.9823 C247.9191,352.6988 242.5352,352.2826 240.4075,346.6972 C236.9607,351.2314 231.8316,351.9653 228.9729,346.0535 C225.2624,351.4639 219.5005,350.8207 216.1925,345.5711 C212.514,350.1597 208.9425,348.8706 206.7744,344.0579 C202.572,351.1307 198.1415,349.6847 193.8817,344.1164 C184.3576,350.6119 176.7188,345.1102 175.4731,334.9608 C176.2431,334.0595 176.9982,334.0155 177.6213,335.1183 C171.4599,332.3938 170.985,326.6007 176.2884,322.6505 C170.34,319.36 170.6527,315.5555 174.8221,310.9923 C168.6765,307.9327 167.434,304.39 172.9929,299.472 C165.2007,296.1066 166.3705,289.5587 172.1335,285.3674 C166.5193,282.3628 165.2394,277.5743 170.7187,273.272 C165.8332,268.586 165.7657,264.6911 172.0934,261.2917 C165.1399,257.2856 165.3789,250.8239 172.9546,247.7412 C168.2749,243.5775 168.5301,237.9556 174.9727,235.6479 C169.5474,231.4179 170.3339,226.9651 175.5301,223.2111 C166.791,214.3356 171.9571,205.2346 182.4731,202.9608 C183.2644,202.7338 183.5948,203.0448 183.4799,203.8472 " fill="none" style="stroke:#181818;stroke-width:1.0;"/><text fill="#000000" font-family="sans-serif" font-size="14" font-weight="bold" lengthAdjust="spacing" textLength="84" x="207.4731" y="221.496">Docker Hub</text><text fill="#000000" font-family="sans-serif" font-size="14" font-weight="bold" lengthAdjust="spacing" textLength="5" x="246.9731" y="237.9843"> </text></g><!--MD5=[4b74f3a314264e9ced457c0ed869f6b9]
cluster Hosting service\n--><g id="cluster_Hosting service\n"><path d="M383.2355,237.6304 C384.7666,232.7337 388.5871,230.6625 392.8431,234.6999 C397.0079,229.1456 401.6255,227.7152 405.688,234.8039 C408.9447,229.9212 412.4353,230.8007 415.5141,234.9963 C418.3936,228.3778 423.68,227.5326 428.3981,233.0433 C430.8845,227.1595 434.0291,226.7573 438.377,231.2537 C442.9676,226.6045 447.2524,227.8586 449.1652,233.9447 C452.6218,228.2954 457.4876,228.114 461.7483,232.9827 C466.8325,228.4865 469.7863,230.212 472.3288,235.6812 C475.7429,231.1638 480.3034,230.9823 482.6969,236.7137 C486.8053,230.9169 491.9008,231.4931 495.14,237.6207 C500.567,241.0279 500.1851,246.4724 495.1689,249.9041 C501.171,253.7771 501.6881,257.8294 495.4297,261.9675 C501.8477,264.4438 502.7568,270.006 497.8252,274.6295 C503.2918,279.8886 502.1424,283.673 495.5976,286.7188 C499.9166,290.259 500.3871,294.9821 494.5714,297.5633 C502.0834,300.6649 500.7235,307.4703 495.1278,311.1103 C491.3645,316.5225 487.7935,317.4217 483.3764,311.8071 C481.1793,317.0386 476.5136,318.338 472.936,313.1966 C469.6299,318.8683 465.1799,319.5557 461.591,313.4694 C458.9411,318.9435 454.6048,320.7055 450.0758,315.4946 C446.7985,320.6057 441.1454,321.5664 438.0264,315.3266 C434.6723,320.1301 429.4918,321.3366 426.4378,315.014 C422.6458,319.6428 419.0395,318.2497 416.544,313.6274 C412.0174,317.7086 408.5182,317.1894 405.63,311.7494 C401.929,317.8553 397.2239,316.5659 393.6378,311.6247 C389.3501,315.8482 384.655,315.1893 382.2005,309.508 C375.8563,306.1106 376.1366,301.6043 382.0328,298.0282 C375.6029,295.2592 374.1014,290.2644 379.3937,285.102 C374.0466,281.7044 373.4878,276.4933 378.6954,272.5104 C373.4944,268.3196 373.7699,263.9819 379.573,260.6021 C375.1047,257.0983 375.155,252.3396 380.5427,249.7136 C375.6034,244.7836 376.7868,240.0224 383.2355,237.6304 " fill="none" style="stroke:#181818;stroke-width:1.0;"/><text fill="#000000" font-family="sans-serif" font-size="14" font-weight="bold" lengthAdjust="spacing" textLength="112" x="381.4731" y="253.996">Hosting service</text><text fill="#000000" font-family="sans-serif" font-size="14" font-weight="bold" lengthAdjust="spacing" textLength="5" x="434.9731" y="270.4843"> </text></g><!--MD5=[9f881d6d92fbc4969715e3540b86822e]
entity project--><g id="elem_project"><rect fill="#F1F1F1" height="71.4648" rx="2.5" ry="2.5" style="stroke:#181818;stroke-width:0.5;" width="101" x="22.9731" y="68.4608"/><text fill="#000000" font-family="sans-serif" font-size="14" lengthAdjust="spacing" textLength="47" x="32.9731" y="84.996">Project</text><line style="stroke:#181818;stroke-width:1.0;" x1="23.9731" x2="122.9731" y1="87.9491" y2="87.9491"/><text fill="#000000" font-family="sans-serif" font-size="14" lengthAdjust="spacing" textLength="77" x="32.9731" y="105.4843">Python app</text><line style="stroke:#181818;stroke-width:1.0;stroke-dasharray:1.0,2.0;" x1="23.9731" x2="122.9731" y1="112.4374" y2="112.4374"/><text fill="#000000" font-family="sans-serif" font-size="14" lengthAdjust="spacing" textLength="69" x="32.9731" y="129.9725">Dockerfile</text></g><!--MD5=[edc5ac89098b4c99541bc21d84646db1]
entity image--><g id="elem_image"><rect fill="#F1F1F1" height="95.9531" rx="2.5" ry="2.5" style="stroke:#181818;stroke-width:0.5;" width="116" x="191.4731" y="55.9608"/><text fill="#000000" font-family="sans-serif" font-size="14" lengthAdjust="spacing" textLength="94" x="201.4731" y="72.496">Docker image</text><line style="stroke:#181818;stroke-width:1.0;" x1="192.4731" x2="306.4731" y1="75.4491" y2="75.4491"/><text fill="#000000" font-family="sans-serif" font-size="14" lengthAdjust="spacing" textLength="77" x="201.4731" y="92.9843">Base image</text><line style="stroke:#181818;stroke-width:1.0;stroke-dasharray:1.0,2.0;" x1="192.4731" x2="306.4731" y1="99.9374" y2="99.9374"/><text fill="#000000" font-family="sans-serif" font-size="14" lengthAdjust="spacing" textLength="47" x="201.4731" y="117.4725">Project</text><line style="stroke:#181818;stroke-width:1.0;stroke-dasharray:1.0,2.0;" x1="192.4731" x2="306.4731" y1="124.4257" y2="124.4257"/><text fill="#000000" font-family="sans-serif" font-size="14" lengthAdjust="spacing" textLength="96" x="201.4731" y="141.9608">Dependencies</text></g><!--MD5=[aff0e67a1692f4b0d96c087fa0872bfd]
entity registry--><g id="elem_registry"><rect fill="#F1F1F1" height="103.9531" rx="2.5" ry="2.5" style="stroke:#181818;stroke-width:0.5;" width="148" x="175.4731" y="237.9608"/><text fill="#000000" font-family="sans-serif" font-size="14" lengthAdjust="spacing" textLength="124" x="185.4731" y="254.496">Container registry</text><line style="stroke:#181818;stroke-width:1.0;" x1="176.4731" x2="322.4731" y1="257.4491" y2="257.4491"/><text fill="#000000" font-family="sans-serif" font-size="14" lengthAdjust="spacing" textLength="63" x="185.4731" y="274.9843">tag:latest</text><line style="stroke:#181818;stroke-width:1.0;stroke-dasharray:1.0,2.0;" x1="176.4731" x2="322.4731" y1="281.9374" y2="281.9374"/><text fill="#000000" font-family="sans-serif" font-size="14" lengthAdjust="spacing" textLength="68" x="185.4731" y="299.4725">tag:v1.1.0</text><line style="stroke:#181818;stroke-width:1.0;stroke-dasharray:1.0,2.0;" x1="176.4731" x2="322.4731" y1="306.4257" y2="306.4257"/><text fill="#000000" font-family="sans-serif" font-size="14" lengthAdjust="spacing" textLength="68" x="185.4731" y="323.9608">tag v1.0.0</text><line style="stroke:#181818;stroke-width:1.0;stroke-dasharray:1.0,2.0;" x1="176.4731" x2="322.4731" y1="330.9139" y2="330.9139"/></g><!--MD5=[f83ae91a690dfc657e1c5fbbd818f13d]
entity a--><g id="elem_a"><ellipse cx="437.4731" cy="387.4608" fill="#F1F1F1" rx="8" ry="8" style="stroke:#181818;stroke-width:0.5;"/><path d="M437.4731,395.4608 L437.4731,422.4608 M424.4731,403.4608 L450.4731,403.4608 M437.4731,422.4608 L424.4731,437.4608 M437.4731,422.4608 L450.4731,437.4608 " fill="none" style="stroke:#181818;stroke-width:0.5;"/><text fill="#000000" font-family="sans-serif" font-size="14" lengthAdjust="spacing" textLength="144" x="365.4731" y="452.496">http://myproject.app</text></g><!--MD5=[c1e3f05984ba1120c8c0eb08c3b56370]
entity container--><g id="elem_container"><rect fill="#F1F1F1" height="38.9766" rx="2.5" ry="2.5" style="stroke:#181818;stroke-width:0.5;" width="100" x="387.4731" y="270.4608"/><text fill="#000000" font-family="sans-serif" font-size="14" lengthAdjust="spacing" textLength="76" x="397.4731" y="286.996">application</text><text fill="#000000" font-family="sans-serif" font-size="14" lengthAdjust="spacing" textLength="65" x="397.4731" y="303.4843">container</text></g><path d="M124.3795,103.9608 C145.2932,103.9608 169.6281,103.9608 191.2457,103.9608 " fill="none" style="stroke:#181818;stroke-width:1.0;"/><polygon fill="#181818" points="191.2457,103.9608,182.2457,99.9608,186.2457,103.9608,182.2457,107.9608,191.2457,103.9608" style="stroke:#181818;stroke-width:1.0;"/><text fill="#000000" font-family="sans-serif" font-size="13" lengthAdjust="spacing" textLength="32" x="141.7231" y="97.5292">build</text><path d="M249.4731,152.3454 C249.4731,178.5395 249.4731,211.1005 249.4731,237.8631 " fill="none" style="stroke:#181818;stroke-width:1.0;"/><polygon fill="#181818" points="249.4731,237.8631,253.4731,228.8631,249.4731,232.8631,245.4731,228.8631,249.4731,237.8631" style="stroke:#181818;stroke-width:1.0;"/><text fill="#000000" font-family="sans-serif" font-size="13" lengthAdjust="spacing" textLength="31" x="250.4731" y="183.5292">push</text><path d="M323.5058,289.9608 C344.8784,289.9608 367.6948,289.9608 387.2546,289.9608 " fill="none" style="stroke:#181818;stroke-width:1.0;"/><polygon fill="#181818" points="387.2546,289.9608,378.2546,285.9608,382.2546,289.9608,378.2546,293.9608,387.2546,289.9608" style="stroke:#181818;stroke-width:1.0;"/><text fill="#000000" font-family="sans-serif" font-size="13" lengthAdjust="spacing" textLength="24" x="341.4731" y="283.5292">pull</text><path d="M437.4731,309.6746 C437.4731,327.8592 437.4731,355.9819 437.4731,378.7324 " fill="none" style="stroke:#181818;stroke-width:1.0;"/><polygon fill="#181818" points="437.4731,378.7324,441.4731,369.7324,437.4731,373.7324,433.4731,369.7324,437.4731,378.7324" style="stroke:#181818;stroke-width:1.0;"/><!--MD5=[bc4d619df6808df83f125faef8615dbe]
@startuml
!pragma layout smetana

cloud "GitHub\n" {
card project [
    Project 
    - - - -
    Python app 
    ....
    Dockerfile
]

card image [
    Docker image
    - - - -
    Base image
    ....
    Project
    ....
    Dependencies
]

}

cloud "Docker Hub\n" {
card registry [
    Container registry 
    - - - -
    tag:latest
    ....
    tag:v1.1.0
    ....
    tag v1.0.0
    ....
]
}

' thing
together {
cloud "Hosting service\n" {
    card container[
        application 
        container
    ]
}
actor "http://myproject.app" as a 
}

project -> image : "  build  "
image - -> registry : push
registry -r-> container  : "  pull   "
container - -> a
@enduml

@startuml
!pragma layout smetana

cloud "GitHub\n" {
card project [
    Project 
    - - - -
    Python app 
    ....
    Dockerfile
]

card image [
    Docker image
    - - - -
    Base image
    ....
    Project
    ....
    Dependencies
]

}

cloud "Docker Hub\n" {
card registry [
    Container registry 
    - - - -
    tag:latest
    ....
    tag:v1.1.0
    ....
    tag v1.0.0
    ....
]
}

together {
cloud "Hosting service\n" {
    card container[
        application 
        container
    ]
}
actor "http://myproject.app" as a 
}

project -> image : "  build  "
image - -> registry : push
registry -r-> container  : "  pull   "
container - -> a
@enduml

PlantUML version 1.2022.7(Mon Aug 22 18:01:30 BST 2022)
(GPL source distribution)
Java Runtime: OpenJDK Runtime Environment
JVM: OpenJDK 64-Bit Server VM
Default Encoding: UTF-8
Language: en
Country: GB
--></g></svg>