<?xml version="1.0" encoding="UTF-8" standalone="no"?><svg xmlns="http://www.w3.org/2000/svg" xmlns:xlink="http://www.w3.org/1999/xlink" contentStyleType="text/css" height="441px" preserveAspectRatio="none" style="width:540px;height:441px;background:#FFFFFF;" version="1.1" viewBox="0 0 540 441" width="540px" zoomAndPan="magnify"><defs/><g><!--MD5=[20ea86ce0a0a17cfb3171cbb94efe6bf]
cluster GitHub\n--><g id="cluster_GitHub\n"><path d="M38.7644,19.161 C41.7214,13.6335 47.5506,12.3413 51.2397,18.3708 C53.6323,12.7902 56.8957,11.8464 62.0086,15.0272 C64.6543,10.0529 69.6559,9.9147 72.7351,14.543 C74.4176,9.5518 79.0851,7.7225 82.753,12.5088 C87.2062,6.7797 92.0909,7.1017 95.1561,13.8847 C98.5317,9.5915 102.9097,9.3144 105.6837,14.5494 C109.5084,11.4531 114.5535,11.7963 115.3377,17.7816 C124.3308,10.4698 131.5184,14.8379 133.0898,25.2255 C134.1496,24.8859 134.6964,25.4901 134.5863,26.5117 C139.6736,29.7652 141.0467,33.1997 136.0717,37.7795 C143.3606,40.917 143.4485,45.033 138.1388,50.2576 C143.3625,52.6081 144.4077,55.7903 140.7461,60.4204 C148.4775,62.4566 149.4327,67.5309 144.3603,73.1908 C147.9394,77.5597 146.7435,82.7318 140.5027,83.3846 C145.1106,87.4773 144.7018,93.0258 138.5101,95.3148 C143.25,99.978 141.9116,104.0347 136.492,106.9333 C141.0314,117.7037 138.5926,123.7069 126.0898,124.2255 C127.158,123.9569 127.762,124.5958 127.3103,125.6393 C124.1876,131.062 119.7502,132.229 115.5677,126.7845 C112.7464,132.6945 108.0029,132.2418 104.3481,127.6773 C101.611,131.9828 98.573,133.1152 94.7477,128.9041 C92.4377,134.621 88.3819,136.4509 83.7823,131.1914 C80.0366,136.3055 74.0962,135.6824 71.7854,129.6474 C68.245,133.2152 63.4296,132.2477 62.0424,127.2097 C58.931,131.9044 53.4825,132.1619 50.6913,126.8466 C39.4088,132.859 33.0151,130.2767 31.0898,117.2255 C31.794,117.5138 32.0223,118.2266 31.2906,118.7093 C24.9118,115.9668 24.0903,110.4385 29.8569,106.2935 C24.012,103.9485 23.8004,100.1814 27.5122,95.7175 C21.3164,92.6821 21.7699,86.7862 27.4635,83.7026 C21.5612,82.1311 21.0482,76.8633 24.7496,72.883 C18.5774,68.3419 20.3109,62.4302 26.7764,59.8553 C22.0369,55.6969 23.7253,50.8526 29.4863,49.4214 C24.9155,45.8599 25.0386,40.6906 30.6918,38.2305 C24.5036,29.894 28.0928,20.5765 38.0898,18.2255 C38.7194,18.1589 39.0638,18.5577 38.7644,19.161 " fill="none" style="stroke:#181818;stroke-width:1.0;"/><text fill="#000000" font-family="sans-serif" font-size="14" font-weight="bold" lengthAdjust="spacing" textLength="50" x="57.0898" y="36.7606">GitHub</text><text fill="#000000" font-family="sans-serif" font-size="14" font-weight="bold" lengthAdjust="spacing" textLength="5" x="79.5898" y="53.2489"> </text></g><!--MD5=[4b74f3a314264e9ced457c0ed869f6b9]
cluster Hosting service\n--><g id="cluster_Hosting service\n"><path d="M33.5996,185.8056 C44.9256,172.3362 56.5227,169.1673 66.868,186.8528 C75.2847,171.2923 89.3563,167.8693 100.0673,184.4856 C109.9969,171.7907 122.347,167.7953 131.9437,184.8425 C142.8578,168.9409 155.7781,165.1064 167.7543,183.7411 C180.5076,170.7651 191.3108,168.2154 201.4477,186.5561 C208.4831,169.1868 222.5755,167.481 233.4917,182.7453 C245.7203,166.6516 255.802,169.3947 266.568,184.3056 C276.574,165.3624 293.0662,171.0317 301.7406,185.6991 C311.1183,169.6813 325.9248,168.611 335.3807,185.6194 C344.1159,172.5269 356.6382,173.6969 363.7371,187.3539 C370.0685,168.3667 385.8024,170.0824 396.8344,182.3812 C412.6832,166.3007 423.7578,170.7259 434.2121,188.3616 C443.2907,171.1039 459.9183,171.0159 468.8522,188.5059 C479.7288,170.2577 493.8932,175.0216 503.0898,190.2255 C505.5922,190.4857 505.8065,191.7943 504.9119,193.7908 C523.0001,197.891 522.946,213.8654 511.7862,224.5106 C531.5101,230.7863 533.9006,246.4073 516.7453,258.1239 C527.9817,272.3735 525.7909,282.2784 508.5197,288.9116 C522.3379,306.8113 513.6592,316.0369 496.0898,322.2255 C500.4052,321.3749 502.4298,323.7778 500.7046,327.8678 C488.2818,343.8342 478.1391,340.9767 467.0234,326.4252 C456.1082,342.8361 443.2288,341.2636 432.1977,326.5549 C422.6177,341.9714 412.3141,343.0374 400.3631,329.1288 C391.219,347.3869 377.8762,345.8456 366.7178,331.1877 C357.0474,344.609 345.5736,346.8919 335.096,332.0922 C324.0697,351.7271 312.1986,348.2318 299.6538,333.6658 C285.9596,349.8315 275.1722,348.2159 265.1006,330.0227 C257.1573,344.6127 246.014,344.3301 236.3584,331.8401 C226.7645,348.772 209.577,350.2611 199.5551,332.2915 C186.434,347.8807 177.1207,343.9898 167.7386,328.4676 C157.1225,345.9281 140.1844,342.2187 132.7494,325.2361 C125.4638,338.9861 112.0444,341.7333 101.5224,329.061 C90.935,344.6971 77.3114,342.3404 70.101,325.7666 C50.5565,344.9515 32.7627,343.4943 24.0898,315.2255 C25.9757,316.2788 26.2894,317.8615 24.3784,319.1913 C10.6009,309.8332 10.7941,295.4975 27.4597,289.2749 C13.4912,282.122 11.5114,265.8222 24.628,256.3406 C10.7995,246.2524 11.9195,234.8099 27.4468,227.6009 C6.5943,212.052 6,195.0028 31.0898,183.2255 C32.9554,182.9499 34.035,183.8427 33.5996,185.8056 " fill="none" style="stroke:#181818;stroke-width:1.0;"/><text fill="#000000" font-family="sans-serif" font-size="14" font-weight="bold" lengthAdjust="spacing" textLength="112" x="207.5898" y="201.7606">Hosting service</text><text fill="#000000" font-family="sans-serif" font-size="14" font-weight="bold" lengthAdjust="spacing" textLength="5" x="261.0898" y="218.2489"> </text></g><!--MD5=[9f881d6d92fbc4969715e3540b86822e]
entity project--><g id="elem_project"><rect fill="#F1F1F1" height="71.4648" rx="2.5" ry="2.5" style="stroke:#181818;stroke-width:0.5;" width="101" x="31.5898" y="53.2255"/><text fill="#000000" font-family="sans-serif" font-size="14" lengthAdjust="spacing" textLength="47" x="41.5898" y="69.7606">Project</text><line style="stroke:#181818;stroke-width:1.0;" x1="32.5898" x2="131.5898" y1="72.7137" y2="72.7137"/><text fill="#000000" font-family="sans-serif" font-size="14" lengthAdjust="spacing" textLength="77" x="41.5898" y="90.2489">Python app</text><line style="stroke:#181818;stroke-width:1.0;stroke-dasharray:1.0,2.0;" x1="32.5898" x2="131.5898" y1="97.202" y2="97.202"/><text fill="#000000" font-family="sans-serif" font-size="14" lengthAdjust="spacing" textLength="69" x="41.5898" y="114.7372">Dockerfile</text></g><!--MD5=[f83ae91a690dfc657e1c5fbbd818f13d]
entity a--><g id="elem_a"><ellipse cx="439.0898" cy="367.7255" fill="#F1F1F1" rx="8" ry="8" style="stroke:#181818;stroke-width:0.5;"/><path d="M439.0898,375.7255 L439.0898,402.7255 M426.0898,383.7255 L452.0898,383.7255 M439.0898,402.7255 L426.0898,417.7255 M439.0898,402.7255 L452.0898,417.7255 " fill="none" style="stroke:#181818;stroke-width:0.5;"/><text fill="#000000" font-family="sans-serif" font-size="14" lengthAdjust="spacing" textLength="144" x="367.0898" y="432.7606">http://myproject.app</text></g><!--MD5=[edc5ac89098b4c99541bc21d84646db1]
entity image--><g id="elem_image"><rect fill="#F1F1F1" height="95.9531" rx="2.5" ry="2.5" style="stroke:#181818;stroke-width:0.5;" width="116" x="24.0898" y="222.2255"/><text fill="#000000" font-family="sans-serif" font-size="14" lengthAdjust="spacing" textLength="94" x="34.0898" y="238.7606">Docker image</text><line style="stroke:#181818;stroke-width:1.0;" x1="25.0898" x2="139.0898" y1="241.7137" y2="241.7137"/><text fill="#000000" font-family="sans-serif" font-size="14" lengthAdjust="spacing" textLength="77" x="34.0898" y="259.2489">Base image</text><line style="stroke:#181818;stroke-width:1.0;stroke-dasharray:1.0,2.0;" x1="25.0898" x2="139.0898" y1="266.202" y2="266.202"/><text fill="#000000" font-family="sans-serif" font-size="14" lengthAdjust="spacing" textLength="47" x="34.0898" y="283.7372">Project</text><line style="stroke:#181818;stroke-width:1.0;stroke-dasharray:1.0,2.0;" x1="25.0898" x2="139.0898" y1="290.6903" y2="290.6903"/><text fill="#000000" font-family="sans-serif" font-size="14" lengthAdjust="spacing" textLength="96" x="34.0898" y="308.2255">Dependencies</text></g><!--MD5=[aff0e67a1692f4b0d96c087fa0872bfd]
entity registry--><g id="elem_registry"><rect fill="#F1F1F1" height="103.9531" rx="2.5" ry="2.5" style="stroke:#181818;stroke-width:0.5;" width="148" x="191.0898" y="218.2255"/><text fill="#000000" font-family="sans-serif" font-size="14" lengthAdjust="spacing" textLength="124" x="201.0898" y="234.7606">Container registry</text><line style="stroke:#181818;stroke-width:1.0;" x1="192.0898" x2="338.0898" y1="237.7137" y2="237.7137"/><text fill="#000000" font-family="sans-serif" font-size="14" lengthAdjust="spacing" textLength="63" x="201.0898" y="255.2489">tag:latest</text><line style="stroke:#181818;stroke-width:1.0;stroke-dasharray:1.0,2.0;" x1="192.0898" x2="338.0898" y1="262.202" y2="262.202"/><text fill="#000000" font-family="sans-serif" font-size="14" lengthAdjust="spacing" textLength="68" x="201.0898" y="279.7372">tag:v1.1.0</text><line style="stroke:#181818;stroke-width:1.0;stroke-dasharray:1.0,2.0;" x1="192.0898" x2="338.0898" y1="286.6903" y2="286.6903"/><text fill="#000000" font-family="sans-serif" font-size="14" lengthAdjust="spacing" textLength="68" x="201.0898" y="304.2255">tag v1.0.0</text><line style="stroke:#181818;stroke-width:1.0;stroke-dasharray:1.0,2.0;" x1="192.0898" x2="338.0898" y1="311.1786" y2="311.1786"/></g><!--MD5=[c1e3f05984ba1120c8c0eb08c3b56370]
entity container--><g id="elem_container"><rect fill="#F1F1F1" height="38.9766" rx="2.5" ry="2.5" style="stroke:#181818;stroke-width:0.5;" width="100" x="403.0898" y="250.7255"/><text fill="#000000" font-family="sans-serif" font-size="14" lengthAdjust="spacing" textLength="76" x="413.0898" y="267.2606">application</text><text fill="#000000" font-family="sans-serif" font-size="14" lengthAdjust="spacing" textLength="65" x="413.0898" y="283.7489">container</text></g><path d="M82.0898,124.3349 C82.0898,152.1471 82.0898,191.4934 82.0898,222.1666 " fill="none" style="stroke:#181818;stroke-width:1.0;"/><polygon fill="#181818" points="82.0898,222.1666,86.0898,213.1666,82.0898,217.1666,78.0898,213.1666,82.0898,222.1666" style="stroke:#181818;stroke-width:1.0;"/><text fill="#000000" font-family="sans-serif" font-size="13" lengthAdjust="spacing" textLength="34" x="91.0898" y="155.7938">clone</text><path d="M140.2436,270.2255 C156.3609,270.2255 174.0775,270.2255 190.973,270.2255 " fill="none" style="stroke:#181818;stroke-width:1.0;"/><polygon fill="#181818" points="190.973,270.2255,181.973,266.2255,185.973,270.2255,181.973,274.2255,190.973,270.2255" style="stroke:#181818;stroke-width:1.0;"/><text fill="#000000" font-family="sans-serif" font-size="13" lengthAdjust="spacing" textLength="31" x="150.0898" y="263.7938">push</text><path d="M339.1225,270.2255 C360.4951,270.2255 383.3115,270.2255 402.8713,270.2255 " fill="none" style="stroke:#181818;stroke-width:1.0;"/><polygon fill="#181818" points="402.8713,270.2255,393.8713,266.2255,397.8713,270.2255,393.8713,274.2255,402.8713,270.2255" style="stroke:#181818;stroke-width:1.0;"/><text fill="#000000" font-family="sans-serif" font-size="13" lengthAdjust="spacing" textLength="24" x="357.0898" y="263.7938">pull</text><path d="M450.9938,289.9392 C448.9572,308.1238 445.8074,336.2465 443.2593,358.997 " fill="none" style="stroke:#181818;stroke-width:1.0;"/><polygon fill="#181818" points="443.2593,358.997,448.2362,350.4982,443.8159,354.0281,440.2859,349.6077,443.2593,358.997" style="stroke:#181818;stroke-width:1.0;"/><!--MD5=[bbd07d21667a2cb93674c2ab9d025d61]
@startuml
!pragma layout smetana

cloud "GitHub\n" {
card project [
    Project 
    - - - -
    Python app 
    ....
    Dockerfile
]

}


' thing
together {
cloud "Hosting service\n" {

    card image [
    Docker image
    - - - -
    Base image
    ....
    Project
    ....
    Dependencies
 ]

 card registry [
    Container registry 
    - - - -
    tag:latest
    ....
    tag:v1.1.0
    ....
    tag v1.0.0
    ....
]

    card container[
        application 
        container
    ]
}
actor "http://myproject.app" as a 
}

project - -> image : "  clone  "
image -r-> registry : push
registry -> container  : "  pull   "
container - -> a
@enduml

@startuml
!pragma layout smetana

cloud "GitHub\n" {
card project [
    Project 
    - - - -
    Python app 
    ....
    Dockerfile
]

}


together {
cloud "Hosting service\n" {

    card image [
    Docker image
    - - - -
    Base image
    ....
    Project
    ....
    Dependencies
 ]

 card registry [
    Container registry 
    - - - -
    tag:latest
    ....
    tag:v1.1.0
    ....
    tag v1.0.0
    ....
]

    card container[
        application 
        container
    ]
}
actor "http://myproject.app" as a 
}

project - -> image : "  clone  "
image -r-> registry : push
registry -> container  : "  pull   "
container - -> a
@enduml

PlantUML version 1.2022.7(Mon Aug 22 18:01:30 BST 2022)
(GPL source distribution)
Java Runtime: OpenJDK Runtime Environment
JVM: OpenJDK 64-Bit Server VM
Default Encoding: UTF-8
Language: en
Country: GB
--></g></svg>